<?xml version="1.0" encoding="utf-8"?>
<!-- Generator: Adobe Illustrator 18.1.1, SVG Export Plug-In . SVG Version: 6.00 Build 0)  -->
<svg version="1.1" id="Слой_1" xmlns="http://www.w3.org/2000/svg" xmlns:xlink="http://www.w3.org/1999/xlink" x="0px" y="0px"
	 viewBox="1352.9 371 50 50" enable-background="new 1352.9 371 50 50" xml:space="preserve">
<g id="Слой_x0020_1">
	
		<radialGradient id="SVGID_1_" cx="9317.7041" cy="-9779.8633" r="1693.1576" gradientTransform="matrix(2.221968e-002 0 0 -2.204594e-002 1170.7673 180.5353)" gradientUnits="userSpaceOnUse">
		<stop  offset="0" style="stop-color:#FFFFFF"/>
		<stop  offset="0.4706" style="stop-color:#BFBFBF"/>
		<stop  offset="1" style="stop-color:#808080"/>
	</radialGradient>
	<path fill="url(#SVGID_1_)" fill-opacity="0.7882" d="M1359.2,371.3h37.2c3.6,0,6.5,2.9,6.5,6.4v36.9c0,3.5-2.9,6.4-6.5,6.4h-37.2
		c-3.6,0-6.5-2.9-6.5-6.4v-36.9C1352.7,374.1,1355.6,371.3,1359.2,371.3z"/>
	<g id="_846005907632">
		<g>
			<defs>
				<polygon id="SVGID_2_" points="1352.5,371.7 1402.7,371.3 1402.7,420.5 1352.5,420.9 				"/>
			</defs>
			<clipPath id="SVGID_3_">
				<use xlink:href="#SVGID_2_"  overflow="visible"/>
			</clipPath>
			<g clip-path="url(#SVGID_3_)">
			</g>
		</g>
	</g>
	<g id="_844095356144">
		
			<image overflow="visible" opacity="0.75" width="66" height="66" xlink:href="3030205E.png"  transform="matrix(1 0 0 1 1345 363)">
		</image>
		<g>
			<g>
				<g>
					<line fill="none" stroke="#1A84ED" stroke-width="3" stroke-linecap="round" x1="1355.5" y1="398.2" x2="1397.5" y2="398.2"/>
					<polygon fill="#1A84ED" stroke="#1A84ED" stroke-width="3" stroke-linejoin="round" points="1400.5,398.1 1397.2,400 
						1393.9,401.8 1393.9,398.1 1393.9,394.3 1397.2,396.2 					"/>
				</g>
				<g>
					<line fill="none" stroke="#1A84ED" stroke-width="3" stroke-linecap="round" x1="1375.9" y1="417.5" x2="1375.9" y2="375.9"/>
					<polygon fill="#1A84ED" stroke="#1A84ED" stroke-width="3" stroke-linejoin="round" points="1376.1,373.5 1378.1,376.8 
						1380,380 1376.1,380 1372.2,380 1374.2,376.8 					"/>
				</g>
			</g>
		</g>
	</g>
</g>
</svg>
