<?xml version="1.0" encoding="utf-8"?>
<!-- Generator: Adobe Illustrator 18.1.1, SVG Export Plug-In . SVG Version: 6.00 Build 0)  -->
<svg version="1.1" id="Слой_1" xmlns="http://www.w3.org/2000/svg" xmlns:xlink="http://www.w3.org/1999/xlink" x="0px" y="0px"
	 viewBox="1633.9 0 50 50" enable-background="new 1633.9 0 50 50" xml:space="preserve">
<g id="Слой_x0020_1">
	
		<radialGradient id="SVGID_1_" cx="3136.7114" cy="-991.7915" r="1693.5801" gradientTransform="matrix(2.195124e-002 0 0 -2.169150e-002 1589.9839 3.4832)" gradientUnits="userSpaceOnUse">
		<stop  offset="0" style="stop-color:#FFFFFF"/>
		<stop  offset="0.4706" style="stop-color:#BFBFBF"/>
		<stop  offset="1" style="stop-color:#808080"/>
	</radialGradient>
	<path fill="url(#SVGID_1_)" fill-opacity="0.7882" d="M1640.5,0.5h36.7c3.5,0,6.4,2.8,6.4,6.3v36.3c0,3.5-2.9,6.3-6.4,6.3h-36.7
		c-3.5,0-6.4-2.8-6.4-6.3V6.8C1634.1,3.4,1636.9,0.5,1640.5,0.5z"/>
	<g id="_844142123616">
		<g>
			<defs>
				<polygon id="SVGID_2_" points="1635.6,3.2 1683.7,1.2 1683.7,48.7 1635.6,50.7 				"/>
			</defs>
			<clipPath id="SVGID_3_">
				<use xlink:href="#SVGID_2_"  overflow="visible"/>
			</clipPath>
			<g clip-path="url(#SVGID_3_)">
			</g>
		</g>
	</g>
	<g>
		
			<image overflow="visible" opacity="0.75" width="63" height="60" xlink:href="B6F25206.png"  transform="matrix(1 0 0 1 1627 -5)">
		</image>
		<g>
			<path fill="none" stroke="#1A84ED" stroke-width="3" d="M1647.9,12.3c9.7-8,22.4-8.8,28.4-1.7s3,19.3-6.6,27.4
				s-22.4,8.8-28.4,1.7C1635.2,32.5,1638.2,20.3,1647.9,12.3z"/>
		</g>
	</g>
</g>
</svg>
